<?xml version="1.0" encoding="UTF-8"?>
<svg id="Layer_2" data-name="Layer 2" xmlns="http://www.w3.org/2000/svg" viewBox="0 0 436.06 129.02">
  <defs>
    <style>
      .cls-1 {
        fill: #3e7e7f;
      }

      .cls-2 {
        fill: #333;
      }
    </style>
  </defs>
  <g id="Layer_1-2" data-name="Layer 1">
    <g>
      <g>
        <path class="cls-2" d="M146.97,33.4c0-8.08,5.84-13.97,13.56-13.97s13.56,5.89,13.56,13.97-5.84,13.92-13.56,13.92-13.56-5.94-13.56-13.92ZM160.54,44.17c5.89,0,10.26-4.52,10.26-10.77s-4.37-10.87-10.26-10.87-10.26,4.57-10.26,10.87,4.37,10.77,10.26,10.77Z"/>
        <path class="cls-2" d="M185.4,19.94h2.84v3.05h-2.54c-3.4,0-4.78,1.22-4.78,4.88v18.9h-3.25v-18.9c0-5.38,2.44-7.92,7.72-7.92Z"/>
        <path class="cls-2" d="M190.42,7.65h3.25v7.21h-3.25v-7.21ZM190.42,19.94h3.25v26.82h-3.25v-26.82Z"/>
        <path class="cls-2" d="M197.4,33.4c0-8.18,5.89-13.97,13.26-13.97,4.52,0,8.48,2.18,10.31,5.54v-5.03h3v26.82h-3v-4.98c-1.83,3.35-5.79,5.49-10.31,5.49-7.37,0-13.26-5.79-13.26-13.87ZM211.02,44.17c5.43,0,10.01-3.76,10.01-10.77s-4.57-10.87-10.01-10.87c-5.94,0-10.31,4.57-10.31,10.87s4.37,10.77,10.31,10.77Z"/>
        <path class="cls-2" d="M239.27,19.43c6.35,0,10.11,4.11,10.11,11.12v16.2h-3.25v-16.1c0-5.28-2.44-8.13-6.86-8.13s-6.86,2.84-6.86,8.13v16.1h-3.25v-16.2c0-7.01,3.71-11.12,10.11-11.12Z"/>
        <path class="cls-2" d="M252.88,33.4c0-8.18,5.89-13.97,13.26-13.97,4.52,0,8.48,2.18,10.31,5.54v-5.03h3v26.82h-3v-4.98c-1.83,3.35-5.79,5.49-10.31,5.49-7.37,0-13.26-5.79-13.26-13.87ZM266.49,44.17c5.43,0,10.01-3.76,10.01-10.77s-4.57-10.87-10.01-10.87c-5.94,0-10.31,4.57-10.31,10.87s4.37,10.77,10.31,10.77Z"/>
      </g>
      <g>
        <path class="cls-2" d="M149.64,90.79c0-14.65,10.34-24.81,24.81-24.81,2.29,0,4.94.18,7.78.64v7.78c-2.84-.46-5.22-.64-6.87-.64-10.53,0-17.3,7.05-17.3,17.03s6.77,16.84,17.3,16.84c1.65,0,4.03-.18,6.87-.55v7.78c-2.84.46-5.49.64-7.78.64-14.46,0-24.81-10.16-24.81-24.72Z"/>
        <path class="cls-2" d="M183.08,90.79c0-14.65,10.8-25.36,24.9-25.36s24.81,10.71,24.81,25.36-10.8,25.17-24.81,25.17-24.9-10.62-24.9-25.17ZM207.98,108c9.34,0,16.29-7.23,16.29-17.21s-6.96-17.39-16.29-17.39-16.48,7.23-16.48,17.39,7.05,17.21,16.48,17.21Z"/>
        <path class="cls-2" d="M257.7,65.43c11.9,0,19.04,7.6,19.04,20.41v29.02h-8.42v-28.74c0-8.24-3.75-12.72-10.62-12.72s-10.71,4.49-10.71,12.72v28.74h-8.42v-29.02c0-12.82,7.05-20.41,19.13-20.41Z"/>
        <path class="cls-2" d="M304.21,65.43c11.9,0,19.04,7.6,19.04,20.41v29.02h-8.42v-28.74c0-8.24-3.75-12.72-10.62-12.72s-10.71,4.49-10.71,12.72v28.74h-8.42v-29.02c0-12.82,7.05-20.41,19.13-20.41Z"/>
        <path class="cls-2" d="M329.03,90.88c0-14.46,10.25-25.27,24.26-25.27,12.27,0,23.25,8.33,22.98,26.18h-39.36c.46,9.52,7.05,16.57,17.03,16.57,7.05,0,12.82-3.48,16.39-9.34l5.86,4.3c-4.21,6.59-11.53,12.45-22.34,12.45-14.83,0-24.81-10.71-24.81-24.9ZM368.02,85.48c-1.56-8.61-7.6-12.72-14.83-12.72-8.15,0-14.1,5.4-15.84,12.72h30.67Z"/>
        <path class="cls-2" d="M379.88,90.79c0-14.65,10.34-24.81,24.81-24.81,2.29,0,4.94.18,7.78.64v7.78c-2.84-.46-5.22-.64-6.87-.64-10.53,0-17.3,7.05-17.3,17.03s6.77,16.84,17.3,16.84c1.65,0,4.03-.18,6.87-.55v7.78c-2.84.46-5.49.64-7.78.64-14.46,0-24.81-10.16-24.81-24.72Z"/>
        <path class="cls-2" d="M421.41,74.22h-5.86v-7.69h5.86v-13.36l8.42-3.11v16.48h6.22v7.69h-6.22v40.64h-8.42v-40.64Z"/>
      </g>
      <g>
        <circle class="cls-1" cx="81.6" cy="85.41" r="15.36"/>
        <path class="cls-1" d="M80.92,129.01c-24.08-.37-43.2-20.46-43.2-44.54v-10.54c0-2.14,1.73-3.87,3.87-3.87h4.59c2.14,0,3.87,1.73,3.87,3.87v10.65c0,17.65,14.45,32.41,32.1,32.1,17.14-.29,31-14.33,31-31.54v-35.02c0-2.14,1.73-3.87,3.87-3.87h4.59c2.14,0,3.87,1.73,3.87,3.87v35.02c0,24.42-20.06,44.25-44.57,43.88Z"/>
        <circle class="cls-1" cx="43.88" cy="43.6" r="15.36"/>
        <path class="cls-1" d="M8.46,82.78H3.87C1.73,82.78,0,81.04,0,78.9v-34.35C0,20.47,19.12.37,43.2,0c24.51-.37,44.57,19.45,44.57,43.88v11.21c0,2.14-1.73,3.87-3.87,3.87h-4.59c-2.14,0-3.87-1.73-3.87-3.87v-10.65c0-17.65-14.45-32.41-32.1-32.1s-31,14.33-31,31.54v35.02c0,2.14-1.73,3.87-3.87,3.87Z"/>
      </g>
    </g>
  </g>
</svg>