<?xml version="1.0" encoding="UTF-8"?>
<svg id="Layer_2" data-name="Layer 2" xmlns="http://www.w3.org/2000/svg" viewBox="0 0 451.36 134.62">
  <defs>
    <style>
      .cls-1 {
        stroke-width: 14.03px;
      }

      .cls-1, .cls-2 {
        fill: none;
        stroke: #6f569e;
        stroke-miterlimit: 10;
      }

      .cls-2 {
        stroke-width: 12px;
      }

      .cls-3 {
        fill: #333;
      }
    </style>
  </defs>
  <g id="Layer_1-2" data-name="Layer 1">
    <g>
      <path class="cls-3" d="M175.7,58.89h7.48l.09,7.39c3.38-5.2,9.95-8.3,17.16-8.3,13.14,0,23.91,10.31,23.91,25.01s-10.77,25.01-23.91,25.01c-6.75,0-13.05-2.83-16.61-7.48.18,3.56.27,7.21.27,10.68v13.96h-8.4V58.89ZM199.34,100.14c9.58,0,16.52-7.12,16.52-17.16s-6.94-17.25-16.52-17.25c-8.76,0-15.97,6.21-15.97,17.25s7.21,17.16,15.97,17.16Z"/>
      <path class="cls-3" d="M228.05,83.17c0-14.42,10.22-25.19,24.18-25.19,12.23,0,23.18,8.3,22.91,26.1h-39.24c.46,9.49,7.03,16.52,16.97,16.52,7.03,0,12.78-3.47,16.34-9.31l5.84,4.29c-4.2,6.57-11.5,12.41-22.27,12.41-14.78,0-24.73-10.68-24.73-24.82ZM266.93,77.78c-1.55-8.58-7.57-12.69-14.78-12.69-8.12,0-14.05,5.38-15.79,12.69h30.57Z"/>
      <path class="cls-3" d="M278.61,83.08c0-14.6,10.77-25.28,24.82-25.28s24.73,10.68,24.73,25.28-10.77,25.1-24.73,25.1-24.82-10.59-24.82-25.1ZM303.43,100.23c9.31,0,16.25-7.21,16.25-17.16s-6.94-17.34-16.25-17.34-16.43,7.21-16.43,17.34,7.03,17.16,16.43,17.16Z"/>
      <path class="cls-3" d="M334.55,58.89h7.48l.09,7.39c3.38-5.2,9.95-8.3,17.16-8.3,13.14,0,23.91,10.31,23.91,25.01s-10.77,25.01-23.91,25.01c-6.75,0-13.05-2.83-16.61-7.48.18,3.56.27,7.21.27,10.68v13.96h-8.4V58.89ZM358.18,100.14c9.58,0,16.52-7.12,16.52-17.16s-6.94-17.25-16.52-17.25c-8.76,0-15.97,6.21-15.97,17.25s7.21,17.16,15.97,17.16Z"/>
      <path class="cls-3" d="M389.53,36.71h8.4v70.36h-8.4V36.71Z"/>
      <path class="cls-3" d="M404.27,83.17c0-14.42,10.22-25.19,24.18-25.19,12.23,0,23.18,8.3,22.91,26.1h-39.24c.46,9.49,7.03,16.52,16.97,16.52,7.03,0,12.78-3.47,16.34-9.31l5.84,4.29c-4.2,6.57-11.5,12.41-22.27,12.41-14.78,0-24.73-10.68-24.73-24.82ZM443.14,77.78c-1.55-8.58-7.57-12.69-14.78-12.69-8.12,0-14.05,5.38-15.79,12.69h30.57Z"/>
    </g>
    <g>
      <path class="cls-3" d="M169.5,25.75c0-8.08,5.84-13.97,13.56-13.97s13.56,5.89,13.56,13.97-5.84,13.92-13.56,13.92-13.56-5.94-13.56-13.92ZM183.06,36.52c5.89,0,10.26-4.52,10.26-10.77s-4.37-10.87-10.26-10.87-10.26,4.57-10.26,10.87,4.37,10.77,10.26,10.77Z"/>
      <path class="cls-3" d="M207.92,12.29h2.84v3.05h-2.54c-3.4,0-4.78,1.22-4.78,4.88v18.9h-3.25v-18.9c0-5.38,2.44-7.92,7.72-7.92Z"/>
      <path class="cls-3" d="M212.95,0h3.25v7.21h-3.25V0ZM212.95,12.29h3.25v26.82h-3.25V12.29Z"/>
      <path class="cls-3" d="M219.93,25.75c0-8.18,5.89-13.97,13.26-13.97,4.52,0,8.48,2.18,10.31,5.54v-5.03h3v26.82h-3v-4.98c-1.83,3.35-5.79,5.49-10.31,5.49-7.37,0-13.26-5.79-13.26-13.87ZM233.54,36.52c5.43,0,10.01-3.76,10.01-10.77s-4.57-10.87-10.01-10.87c-5.94,0-10.31,4.57-10.31,10.87s4.37,10.77,10.31,10.77Z"/>
      <path class="cls-3" d="M261.79,11.78c6.35,0,10.11,4.11,10.11,11.12v16.2h-3.25v-16.1c0-5.28-2.44-8.13-6.86-8.13s-6.86,2.84-6.86,8.13v16.1h-3.25v-16.2c0-7.01,3.71-11.12,10.11-11.12Z"/>
      <path class="cls-3" d="M275.4,25.75c0-8.18,5.89-13.97,13.26-13.97,4.52,0,8.48,2.18,10.31,5.54v-5.03h3v26.82h-3v-4.98c-1.83,3.35-5.79,5.49-10.31,5.49-7.37,0-13.26-5.79-13.26-13.87ZM289.02,36.52c5.43,0,10.01-3.76,10.01-10.77s-4.57-10.87-10.01-10.87c-5.94,0-10.31,4.57-10.31,10.87s4.37,10.77,10.31,10.77Z"/>
    </g>
    <circle class="cls-2" cx="21.36" cy="68.01" r="15.36"/>
    <circle class="cls-2" cx="138.91" cy="68.01" r="15.36"/>
    <circle class="cls-2" cx="77.72" cy="36.15" r="20.26"/>
    <path class="cls-1" d="M27.36,100.71l13.1,20.75c5.9,9.35,16.93,7.02,20.49-4.34l5.87-28.87c4.18-13.35,17.97-13.55,22.36-.33l6.56,29.88c3.7,11.14,14.61,13.24,20.42,3.94l11.92-19.09"/>
  </g>
</svg>