<?xml version="1.0" encoding="UTF-8"?>
<svg id="Layer_2" data-name="Layer 2" xmlns="http://www.w3.org/2000/svg" viewBox="0 0 481.91 156.61">
  <defs>
    <style>
      .cls-1 {
        fill: #ed693b;
      }

      .cls-2 {
        fill: #333;
      }
    </style>
  </defs>
  <g id="Layer_1-2" data-name="Layer 1">
    <g>
      <path class="cls-2" d="M136.45,86.73c0-20.21,15.31-34.77,34.77-34.77s34.77,14.56,34.77,34.77-15.31,34.9-34.77,34.9-34.77-14.69-34.77-34.9ZM171.22,106.94c10.92,0,19.21-8.29,19.21-20.21s-8.28-20.21-19.21-20.21-19.2,8.29-19.2,20.21,8.28,20.21,19.2,20.21Z"/>
      <path class="cls-2" d="M235.28,53.46h8.03v14.06h-6.53c-5.65,0-7.91,2.26-7.91,8.03v44.31h-15.56v-43.93c0-15.57,7.78-22.47,21.97-22.47Z"/>
      <path class="cls-2" d="M248.21,22.96h15.56v19.46h-15.56v-19.46ZM248.21,53.46h15.56v66.4h-15.56V53.46Z"/>
      <path class="cls-2" d="M271.72,86.73c0-20.46,14.94-34.52,33.01-34.52,8.66,0,16.69,3.26,21.46,9.29l.13-8.03h13.81v66.4h-13.81l-.13-8.03c-4.77,6.02-12.8,9.29-21.46,9.29-18.08,0-33.01-14.18-33.01-34.39ZM306.74,106.81c10.54,0,18.95-7.41,18.95-20.08s-8.41-20.21-18.95-20.21c-11.17,0-19.46,8.16-19.46,20.21s8.28,20.08,19.46,20.08Z"/>
      <path class="cls-2" d="M378.8,51.96c17.2,0,27.61,10.67,27.61,28.37v39.54h-15.56v-39.04c0-9.29-4.39-14.31-12.05-14.31s-12.05,5.02-12.05,14.31v39.04h-15.56v-39.54c0-17.7,10.29-28.37,27.61-28.37Z"/>
      <path class="cls-2" d="M413.5,86.73c0-20.46,14.94-34.52,33.01-34.52,8.66,0,16.69,3.26,21.46,9.29l.13-8.03h13.81v66.4h-13.81l-.13-8.03c-4.77,6.02-12.8,9.29-21.46,9.29-18.08,0-33.01-14.18-33.01-34.39ZM448.52,106.81c10.54,0,18.95-7.41,18.95-20.08s-8.41-20.21-18.95-20.21c-11.17,0-19.46,8.16-19.46,20.21s8.28,20.08,19.46,20.08Z"/>
    </g>
    <g>
      <path class="cls-1" d="M22.61,123.76h-12.92c-6.12,0-10.71-5.61-9.5-11.61L15.83,34.72C19.88,14.68,37.45.24,57.89.16L97.31,0c6.86-.03,10.89,7.7,6.95,13.31l-10.81,15.39c-1.85,2.63-4.87,4.2-8.09,4.2h-16.38c-11.51,0-21.43,8.09-23.75,19.36l-13.13,63.77c-.93,4.5-4.89,7.73-9.49,7.73Z"/>
      <path class="cls-1" d="M98.68,32.86h12.92c6.12,0,10.71,5.61,9.5,11.61l-15.31,75.82c-4.24,20.98-22.63,36.09-44.03,36.18l-37.78.15c-6.86.03-10.89-7.7-6.95-13.31l10.81-15.39c1.85-2.63,4.87-4.2,8.09-4.2h16.38c11.51,0,21.43-8.09,23.75-19.36l13.13-63.77c.93-4.5,4.89-7.73,9.49-7.73Z"/>
    </g>
  </g>
</svg>