<?xml version="1.0" encoding="UTF-8"?>
<svg id="Layer_2" data-name="Layer 2" xmlns="http://www.w3.org/2000/svg" viewBox="0 0 452.68 138.24">
  <defs>
    <style>
      .cls-1 {
        stroke-width: 13px;
      }

      .cls-1, .cls-2 {
        fill: none;
        stroke: #ed693b;
        stroke-linecap: round;
        stroke-linejoin: round;
      }

      .cls-2 {
        stroke-width: 10.65px;
      }

      .cls-3 {
        fill: #ed693b;
        stroke: #fff;
        stroke-miterlimit: 10;
        stroke-width: 3.25px;
      }

      .cls-4 {
        fill: #333;
      }
    </style>
  </defs>
  <g id="Layer_1-2" data-name="Layer 1">
    <g>
      <g>
        <path class="cls-4" d="M149.68,107.13l-.09,7.39h-7.48v-61.47h8.4v9.08c0,3.56-.09,7.21-.27,10.68,3.56-4.65,9.86-7.39,16.61-7.39,13.14,0,23.91,10.31,23.91,25.01s-10.77,25.01-23.91,25.01c-7.21,0-13.78-3.19-17.16-8.31ZM165.84,107.59c9.49,0,16.43-7.12,16.43-17.16s-6.94-17.25-16.43-17.25c-8.85,0-16.06,6.21-16.06,17.25s7.21,17.16,16.06,17.16Z"/>
        <path class="cls-4" d="M194.21,90.52c0-14.6,10.77-25.28,24.82-25.28s24.73,10.68,24.73,25.28-10.77,25.1-24.73,25.1-24.82-10.59-24.82-25.1ZM219.04,107.68c9.31,0,16.25-7.21,16.25-17.16s-6.94-17.34-16.25-17.34-16.43,7.21-16.43,17.34,7.03,17.16,16.43,17.16Z"/>
        <path class="cls-4" d="M247.23,90.52c0-14.6,10.77-25.28,24.82-25.28s24.73,10.68,24.73,25.28-10.77,25.1-24.73,25.1-24.82-10.59-24.82-25.1ZM272.05,107.68c9.31,0,16.25-7.21,16.25-17.16s-6.94-17.34-16.25-17.34-16.43,7.21-16.43,17.34,7.03,17.16,16.43,17.16Z"/>
        <path class="cls-4" d="M311.57,91.89v22.63h-8.4v-61.47h8.4v33.36l17.34-20.08h9.95l-19.26,22.45,20.63,25.74h-10.4l-18.25-22.63Z"/>
        <path class="cls-4" d="M343.18,44.16h8.4v13.51h-8.4v-13.51ZM343.18,66.34h8.4v48.19h-8.4v-48.19Z"/>
        <path class="cls-4" d="M379.25,65.24c11.86,0,18.98,7.58,18.98,20.35v28.93h-8.4v-28.66c0-8.21-3.74-12.69-10.59-12.69s-10.68,4.47-10.68,12.69v28.66h-8.4v-28.93c0-12.78,7.03-20.35,19.07-20.35Z"/>
        <path class="cls-4" d="M416.72,124.93h9.86c11.86,0,17.7-4.65,17.89-14.79v-3.65c-3.38,4.75-9.31,7.58-16.43,7.58-13.42,0-24-9.77-24-24.18s10.59-24.46,23.82-24.46c7.21,0,13.78,3.1,17.16,8.21l.09-7.3h7.57v43.17c0,14.78-9.04,23.09-26.38,23.09h-9.58v-7.67ZM428.95,106.49c8.76,0,15.97-5.66,15.97-16.43s-7.21-16.88-16.06-16.88c-9.49,0-16.43,6.94-16.43,16.7s6.84,16.61,16.52,16.61Z"/>
      </g>
      <g>
        <path class="cls-4" d="M135.9,33.2c0-8.08,5.84-13.97,13.56-13.97s13.56,5.89,13.56,13.97-5.84,13.92-13.56,13.92-13.56-5.94-13.56-13.92ZM149.46,43.97c5.89,0,10.26-4.52,10.26-10.77s-4.37-10.87-10.26-10.87-10.26,4.57-10.26,10.87,4.37,10.77,10.26,10.77Z"/>
        <path class="cls-4" d="M174.33,19.74h2.84v3.05h-2.54c-3.4,0-4.78,1.22-4.78,4.88v18.9h-3.25v-18.9c0-5.38,2.44-7.92,7.72-7.92Z"/>
        <path class="cls-4" d="M179.35,7.44h3.25v7.21h-3.25v-7.21ZM179.35,19.74h3.25v26.82h-3.25v-26.82Z"/>
        <path class="cls-4" d="M186.33,33.2c0-8.18,5.89-13.97,13.26-13.97,4.52,0,8.48,2.18,10.31,5.54v-5.03h3v26.82h-3v-4.98c-1.83,3.35-5.79,5.49-10.31,5.49-7.37,0-13.26-5.79-13.26-13.87ZM199.94,43.97c5.43,0,10.01-3.76,10.01-10.77s-4.57-10.87-10.01-10.87c-5.94,0-10.31,4.57-10.31,10.87s4.37,10.77,10.31,10.77Z"/>
        <path class="cls-4" d="M228.2,19.23c6.35,0,10.11,4.11,10.11,11.12v16.2h-3.25v-16.1c0-5.28-2.44-8.13-6.86-8.13s-6.86,2.84-6.86,8.13v16.1h-3.25v-16.2c0-7.01,3.71-11.12,10.11-11.12Z"/>
        <path class="cls-4" d="M241.81,33.2c0-8.18,5.89-13.97,13.26-13.97,4.52,0,8.48,2.18,10.31,5.54v-5.03h3v26.82h-3v-4.98c-1.83,3.35-5.79,5.49-10.31,5.49-7.37,0-13.26-5.79-13.26-13.87ZM255.42,43.97c5.43,0,10.01-3.76,10.01-10.77s-4.57-10.87-10.01-10.87c-5.94,0-10.31,4.57-10.31,10.87s4.37,10.77,10.31,10.77Z"/>
      </g>
      <path class="cls-1" d="M83.4,17.26h8.57c10.7,0,19.37,8.67,19.37,19.37v75.73c0,10.7-8.67,19.37-19.37,19.37H25.87c-10.7,0-19.37-8.67-19.37-19.37V36.64c0-10.7,8.67-19.37,19.37-19.37h57.52Z"/>
      <polyline class="cls-2" points="33.71 79.83 51.48 98.78 84.13 63.94"/>
      <path class="cls-3" d="M40.56,32.9c-3.89,0-7.05-3.16-7.05-7.05V8.68c0-3.89,3.16-7.05,7.05-7.05s7.05,3.16,7.05,7.05v17.17c0,3.89-3.16,7.05-7.05,7.05Z"/>
      <path class="cls-3" d="M77.14,32.9c-3.89,0-7.05-3.16-7.05-7.05V8.68c0-3.89,3.16-7.05,7.05-7.05s7.05,3.16,7.05,7.05v17.17c0,3.89-3.16,7.05-7.05,7.05Z"/>
    </g>
  </g>
</svg>