<?xml version="1.0" encoding="UTF-8"?>
<svg id="Layer_2" data-name="Layer 2" xmlns="http://www.w3.org/2000/svg" viewBox="0 0 375.11 154.94">
  <defs>
    <style>
      .cls-1 {
        fill: #f04b57;
      }

      .cls-2 {
        fill: #333;
      }
    </style>
  </defs>
  <g id="Layer_1-2" data-name="Layer 1">
    <g>
      <g>
        <g>
          <path class="cls-2" d="M120.44,56.11c0-8.08,5.84-13.97,13.56-13.97s13.56,5.89,13.56,13.97-5.84,13.92-13.56,13.92-13.56-5.94-13.56-13.92ZM134,66.87c5.89,0,10.26-4.52,10.26-10.77s-4.37-10.87-10.26-10.87-10.26,4.57-10.26,10.87,4.37,10.77,10.26,10.77Z"/>
          <path class="cls-2" d="M158.86,42.64h2.84v3.05h-2.54c-3.4,0-4.78,1.22-4.78,4.88v18.9h-3.25v-18.9c0-5.38,2.44-7.92,7.72-7.92Z"/>
          <path class="cls-2" d="M163.89,30.35h3.25v7.21h-3.25v-7.21ZM163.89,42.64h3.25v26.82h-3.25v-26.82Z"/>
          <path class="cls-2" d="M170.87,56.11c0-8.18,5.89-13.97,13.26-13.97,4.52,0,8.48,2.18,10.31,5.54v-5.03h3v26.82h-3v-4.98c-1.83,3.35-5.79,5.49-10.31,5.49-7.37,0-13.26-5.79-13.26-13.87ZM184.48,66.87c5.43,0,10.01-3.76,10.01-10.77s-4.57-10.87-10.01-10.87c-5.94,0-10.31,4.57-10.31,10.87s4.37,10.77,10.31,10.77Z"/>
          <path class="cls-2" d="M212.74,42.14c6.35,0,10.11,4.11,10.11,11.12v16.2h-3.25v-16.1c0-5.28-2.44-8.13-6.86-8.13s-6.86,2.84-6.86,8.13v16.1h-3.25v-16.2c0-7.01,3.71-11.12,10.11-11.12Z"/>
          <path class="cls-2" d="M226.35,56.11c0-8.18,5.89-13.97,13.26-13.97,4.52,0,8.48,2.18,10.31,5.54v-5.03h3v26.82h-3v-4.98c-1.83,3.35-5.79,5.49-10.31,5.49-7.37,0-13.26-5.79-13.26-13.87ZM239.96,66.87c5.43,0,10.01-3.76,10.01-10.77s-4.57-10.87-10.01-10.87c-5.94,0-10.31,4.57-10.31,10.87s4.37,10.77,10.31,10.77Z"/>
        </g>
        <g>
          <path class="cls-2" d="M136.07,88.14c7.23,0,12.27,3.3,14.83,8.24,2.56-4.94,7.69-8.24,14.92-8.24,11.08,0,17.67,7.69,17.67,20.14v29.29h-8.42v-29.29c0-7.6-3.3-12.17-9.7-12.17s-10.25,4.76-10.25,12.91v28.56h-8.42v-28.56c0-8.15-3.66-12.91-10.16-12.91s-9.7,4.58-9.7,12.17v29.29h-8.42v-29.29c0-12.45,6.5-20.14,17.67-20.14Z"/>
          <path class="cls-2" d="M189.37,113.4c0-14.74,10.71-25.08,23.98-25.08,7.23,0,13.73,3.11,17.12,8.24l.09-7.32h7.6v48.33h-7.6l-.09-7.32c-3.39,5.13-9.89,8.24-17.12,8.24-13.27,0-23.98-10.34-23.98-25.08ZM214.27,130.61c8.88,0,16.11-6.13,16.11-17.21s-7.23-17.3-16.11-17.3c-9.43,0-16.48,7.14-16.48,17.3s7.05,17.21,16.48,17.21Z"/>
          <path class="cls-2" d="M261.96,89.24h5.4v7.69h-4.67c-5.13,0-7.23,1.92-7.23,7.41v33.23h-8.42v-33.14c0-10.44,4.94-15.2,14.92-15.2Z"/>
          <path class="cls-2" d="M279.48,114.87v22.7h-8.42v-64.81h8.42v36.62l17.39-20.14h9.98l-19.31,22.52,20.69,25.81h-10.44l-18.31-22.7Z"/>
          <path class="cls-2" d="M305.44,113.59c0-14.46,10.25-25.27,24.26-25.27,12.27,0,23.25,8.33,22.98,26.18h-39.36c.46,9.52,7.05,16.57,17.03,16.57,7.05,0,12.82-3.48,16.39-9.34l5.86,4.3c-4.21,6.59-11.53,12.45-22.34,12.45-14.83,0-24.81-10.71-24.81-24.9ZM344.44,108.19c-1.56-8.61-7.6-12.72-14.83-12.72-8.15,0-14.1,5.4-15.84,12.72h30.67Z"/>
          <path class="cls-2" d="M360.47,96.93h-5.86v-7.69h5.86v-13.36l8.42-3.11v16.48h6.22v7.69h-6.22v40.64h-8.42v-40.64Z"/>
        </g>
      </g>
      <path class="cls-1" d="M69.5,154.94H27.8c-15.33,0-27.8-12.47-27.8-27.8V59.84c0-15.33,12.47-27.8,27.8-27.8h41.7c15.33,0,27.8,12.47,27.8,27.8v67.3c0,15.33-12.47,27.8-27.8,27.8ZM27.8,44.37c-8.53,0-15.46,6.94-15.46,15.46v67.3c0,8.53,6.94,15.46,15.46,15.46h41.7c8.53,0,15.47-6.94,15.47-15.46V59.84c0-8.53-6.94-15.46-15.47-15.46H27.8Z"/>
      <rect class="cls-1" x="21.71" y="108.12" width="24.4" height="24.5" rx="12.01" ry="12.01"/>
      <path class="cls-1" d="M74.28,28.01l-12.3-.98c.3-3.82-.98-7.49-3.62-10.35-2.55-2.77-6.09-4.35-9.71-4.35s-7.16,1.59-9.71,4.35c-2.64,2.86-3.93,6.53-3.62,10.35l-12.3.98c-.57-7.18,1.93-14.36,6.86-19.7C34.76,3.03,41.6,0,48.65,0s13.89,3.03,18.77,8.32c4.93,5.34,7.43,12.52,6.86,19.7Z"/>
    </g>
  </g>
</svg>