<?xml version="1.0" encoding="UTF-8"?>
<svg id="Layer_2" xmlns="http://www.w3.org/2000/svg" version="1.1" viewBox="0 0 150 150">
  <!-- Generator: Adobe Illustrator 29.4.0, SVG Export Plug-In . SVG Version: 2.1.0 Build 152)  -->
  <defs>
    <style>
      .st0 {
        fill: #6f569e;
      }
    </style>
  </defs>
  <path class="st0" d="M43.2,71.4c0-10-8.1-18.2-18.2-18.2s-18.2,8.1-18.2,18.2,8.1,18.2,18.2,18.2,18.2-8.1,18.2-18.2ZM25,79.3c-4.4,0-8-3.6-8-8s3.6-8,8-8,8,3.6,8,8-3.6,8-8,8Z"/>
  <path class="st0" d="M125,53.2c-10,0-18.2,8.1-18.2,18.2s8.1,18.2,18.2,18.2,18.2-8.1,18.2-18.2-8.1-18.2-18.2-18.2ZM125,79.3c-4.4,0-8-3.6-8-8s3.6-8,8-8,8,3.6,8,8-3.6,8-8,8Z"/>
  <path class="st0" d="M72.9,66.6c12.3,0,22.3-10,22.3-22.3s-10-22.3-22.3-22.3-22.3,10-22.3,22.3,10,22.3,22.3,22.3ZM72.9,32.2c6.7,0,12.1,5.4,12.1,12.1s-5.4,12.1-12.1,12.1-12.1-5.4-12.1-12.1,5.4-12.1,12.1-12.1Z"/>
  <path class="st0" d="M100.6,113.9c-.4.7-1.6,2.3-3,2.2-1-.1-2.5-1.2-3.5-4l-5.5-25.1-.2-.6c-2.5-7.7-8.3-12.4-15.1-12.4s0,0-.1,0c-6.9,0-12.7,5-15.1,12.8v.3c0,0-5.1,24.5-5.1,24.5-.9,2.7-2.4,4-3.6,4.2-1.4.2-2.6-1.4-3-2.1l-11.1-17.6-10.1,6.4,11.1,17.6c3.5,5.5,9,8.3,14.7,7.6,6.1-.8,11.3-5.7,13.5-12.7v-.3c0,0,5.1-24.5,5.1-24.5,1-2.9,2.6-4.2,3.8-4.2h0c1.4,0,2.8,1.6,3.7,4l5.5,25.1.2.6c2.3,7,7.4,11.6,13.5,12.3.6,0,1.1,0,1.6,0,5.1,0,9.8-2.8,12.9-7.8l10.1-16.2-10.1-6.3-10.1,16.2Z"/>
</svg>