<?xml version="1.0" encoding="UTF-8"?>
<svg id="Layer_2" xmlns="http://www.w3.org/2000/svg" version="1.1" viewBox="0 0 150 150">
  <!-- Generator: Adobe Illustrator 29.4.0, SVG Export Plug-In . SVG Version: 2.1.0 Build 152)  -->
  <defs>
    <style>
      .st0 {
        fill: #f04b57;
      }
    </style>
  </defs>
  <path class="st0" d="M93.6,144.3h-37.3c-13.7,0-24.9-11.2-24.9-24.9v-60.2c0-13.7,11.2-24.9,24.9-24.9h37.3c13.7,0,24.9,11.2,24.9,24.9v60.2c0,13.7-11.2,24.9-24.9,24.9ZM56.4,45.4c-7.6,0-13.8,6.2-13.8,13.8v60.2c0,7.6,6.2,13.8,13.8,13.8h37.3c7.6,0,13.8-6.2,13.8-13.8v-60.2c0-7.6-6.2-13.8-13.8-13.8h-37.3Z"/>
  <rect class="st0" x="50.9" y="102.4" width="21.8" height="21.9" rx="10.7" ry="10.7"/>
  <path class="st0" d="M97.9,30.8l-11-.9c.3-3.4-.9-6.7-3.2-9.3-2.3-2.5-5.4-3.9-8.7-3.9s-6.4,1.4-8.7,3.9c-2.4,2.6-3.5,5.8-3.2,9.3l-11,.9c-.5-6.4,1.7-12.8,6.1-17.6,4.4-4.7,10.5-7.4,16.8-7.4s12.4,2.7,16.8,7.4c4.4,4.8,6.6,11.2,6.1,17.6h0Z"/>
</svg>