<?xml version="1.0" encoding="UTF-8"?>
<svg id="Layer_2" xmlns="http://www.w3.org/2000/svg" version="1.1" viewBox="0 0 150 150">
  <!-- Generator: Adobe Illustrator 29.4.0, SVG Export Plug-In . SVG Version: 2.1.0 Build 152)  -->
  <defs>
    <style>
      .st0 {
        fill: #ed693b;
      }
    </style>
  </defs>
  <g id="Layer_1-2">
    <g>
      <path class="st0" d="M43.3,112.9h-10.8c-5.1,0-8.9-4.7-7.9-9.7l13-64.5c3.4-16.7,18-28.7,35.1-28.8h32.9c5.7-.2,9.1,6.3,5.8,11l-9,12.8c-1.5,2.2-4.1,3.5-6.7,3.5h-13.7c-9.6,0-17.9,6.7-19.8,16.1l-10.9,53.1c-.8,3.8-4.1,6.4-7.9,6.4Z"/>
      <path class="st0" d="M106.7,37.1h10.8c5.1,0,8.9,4.7,7.9,9.7l-12.8,63.2c-3.5,17.5-18.9,30.1-36.7,30.2h-31.5c-5.7.2-9.1-6.3-5.8-11l9-12.8c1.5-2.2,4.1-3.5,6.7-3.5h13.7c9.6,0,17.9-6.7,19.8-16.1l10.9-53.1c.8-3.8,4.1-6.4,7.9-6.4Z"/>
    </g>
  </g>
</svg>