<?xml version="1.0" encoding="UTF-8"?>
<svg id="Layer_2" xmlns="http://www.w3.org/2000/svg" version="1.1" viewBox="0 0 150 150">
  <!-- Generator: Adobe Illustrator 29.4.0, SVG Export Plug-In . SVG Version: 2.1.0 Build 152)  -->
  <defs>
    <style>
      .st0 {
        fill: #ed693b;
      }
    </style>
  </defs>
  <rect class="st0" x="65.3" y="16.6" width="19.2" height="13"/>
  <path class="st0" d="M108.1,16.6h-6.2v13h6.2c7.1,0,12.9,5.8,12.9,12.9v75.7c0,7.1-5.8,12.9-12.9,12.9H41.9c-7.1,0-12.9-5.8-12.9-12.9V42.5c0-7.1,5.8-12.9,12.9-12.9h6v-13h-6c-14.3,0-25.9,11.6-25.9,25.9v75.7c0,14.3,11.6,25.9,25.9,25.9h66.1c14.3,0,25.9-11.6,25.9-25.9V42.5c0-14.3-11.6-25.9-25.9-25.9Z"/>
  <path class="st0" d="M45.9,89.4l17.8,19c1,1.1,2.4,1.7,3.9,1.7h0c1.5,0,2.9-.6,3.9-1.7l32.7-34.8c2-2.1,1.9-5.5-.2-7.5-2.1-2-5.5-1.9-7.5.2l-28.8,30.7-13.9-14.8c-2-2.1-5.4-2.3-7.5-.2-2.1,2-2.3,5.4-.2,7.5Z"/>
  <path class="st0" d="M56.6,37.2c3,0,5.4-2.4,5.4-5.4V14.6c0-3-2.4-5.4-5.4-5.4s-5.4,2.4-5.4,5.4v17.2c0,3,2.4,5.4,5.4,5.4Z"/>
  <path class="st0" d="M93.2,37.2c3,0,5.4-2.4,5.4-5.4V14.6c0-3-2.4-5.4-5.4-5.4s-5.4,2.4-5.4,5.4v17.2c0,3,2.4,5.4,5.4,5.4Z"/>
</svg>