<?xml version="1.0" encoding="UTF-8"?>
<svg id="Layer_2" xmlns="http://www.w3.org/2000/svg" version="1.1" viewBox="0 0 375.1 154.9">
  <!-- Generator: Adobe Illustrator 29.4.0, SVG Export Plug-In . SVG Version: 2.1.0 Build 152)  -->
  <defs>
    <style>
      .st0 {
        fill: #fff;
      }
    </style>
  </defs>
  <g id="Layer_1-2">
    <g>
      <g>
        <g>
          <path class="st0" d="M120.4,56.1c0-8.1,5.8-14,13.6-14s13.6,5.9,13.6,14-5.8,13.9-13.6,13.9-13.6-5.9-13.6-13.9ZM134,66.9c5.9,0,10.3-4.5,10.3-10.8s-4.4-10.9-10.3-10.9-10.3,4.6-10.3,10.9,4.4,10.8,10.3,10.8Z"/>
          <path class="st0" d="M158.9,42.6h2.8v3h-2.5c-3.4,0-4.8,1.2-4.8,4.9v18.9h-3.2v-18.9c0-5.4,2.4-7.9,7.7-7.9h0Z"/>
          <path class="st0" d="M163.9,30.4h3.2v7.2h-3.2v-7.2ZM163.9,42.6h3.2v26.8h-3.2v-26.8Z"/>
          <path class="st0" d="M170.9,56.1c0-8.2,5.9-14,13.3-14s8.5,2.2,10.3,5.5v-5h3v26.8h-3v-5c-1.8,3.3-5.8,5.5-10.3,5.5-7.4,0-13.3-5.8-13.3-13.9ZM184.5,66.9c5.4,0,10-3.8,10-10.8s-4.6-10.9-10-10.9-10.3,4.6-10.3,10.9,4.4,10.8,10.3,10.8Z"/>
          <path class="st0" d="M212.7,42.1c6.4,0,10.1,4.1,10.1,11.1v16.2h-3.2v-16.1c0-5.3-2.4-8.1-6.9-8.1s-6.9,2.8-6.9,8.1v16.1h-3.2v-16.2c0-7,3.7-11.1,10.1-11.1Z"/>
          <path class="st0" d="M226.4,56.1c0-8.2,5.9-14,13.3-14s8.5,2.2,10.3,5.5v-5h3v26.8h-3v-5c-1.8,3.3-5.8,5.5-10.3,5.5-7.4,0-13.3-5.8-13.3-13.9ZM240,66.9c5.4,0,10-3.8,10-10.8s-4.6-10.9-10-10.9-10.3,4.6-10.3,10.9,4.4,10.8,10.3,10.8Z"/>
        </g>
        <g>
          <path class="st0" d="M136.1,88.1c7.2,0,12.3,3.3,14.8,8.2,2.6-4.9,7.7-8.2,14.9-8.2,11.1,0,17.7,7.7,17.7,20.1v29.3h-8.4v-29.3c0-7.6-3.3-12.2-9.7-12.2s-10.2,4.8-10.2,12.9v28.6h-8.4v-28.6c0-8.2-3.7-12.9-10.2-12.9s-9.7,4.6-9.7,12.2v29.3h-8.4v-29.3c0-12.4,6.5-20.1,17.7-20.1h0Z"/>
          <path class="st0" d="M189.4,113.4c0-14.7,10.7-25.1,24-25.1s13.7,3.1,17.1,8.2v-7.3h7.7v48.3h-7.6v-7.3c-3.5,5.1-10,8.2-17.2,8.2-13.3,0-24-10.3-24-25.1h0ZM214.3,130.6c8.9,0,16.1-6.1,16.1-17.2s-7.2-17.3-16.1-17.3-16.5,7.1-16.5,17.3,7.1,17.2,16.5,17.2h0Z"/>
          <path class="st0" d="M262,89.2h5.4v7.7h-4.7c-5.1,0-7.2,1.9-7.2,7.4v33.2h-8.4v-33.1c0-10.4,4.9-15.2,14.9-15.2h0Z"/>
          <path class="st0" d="M279.5,114.9v22.7h-8.4v-64.8h8.4v36.6l17.4-20.1h10l-19.3,22.5,20.7,25.8h-10.4s-18.3-22.7-18.3-22.7Z"/>
          <path class="st0" d="M305.4,113.6c0-14.5,10.2-25.3,24.3-25.3s23.2,8.3,23,26.2h-39.4c.5,9.5,7,16.6,17,16.6s12.8-3.5,16.4-9.3l5.9,4.3c-4.2,6.6-11.5,12.4-22.3,12.4s-24.8-10.7-24.8-24.9h0ZM344.4,108.2c-1.6-8.6-7.6-12.7-14.8-12.7s-14.1,5.4-15.8,12.7h30.7,0Z"/>
          <path class="st0" d="M360.5,96.9h-5.9v-7.7h5.9v-13.4l8.4-3.1v16.5h6.2v7.7h-6.2v40.6h-8.4v-40.6h0Z"/>
        </g>
      </g>
      <path class="st0" d="M69.5,154.9H27.8c-15.3,0-27.8-12.5-27.8-27.8V59.8c0-15.3,12.5-27.8,27.8-27.8h41.7c15.3,0,27.8,12.5,27.8,27.8v67.3c0,15.3-12.5,27.8-27.8,27.8ZM27.8,44.4c-8.5,0-15.5,6.9-15.5,15.5v67.3c0,8.5,6.9,15.5,15.5,15.5h41.7c8.5,0,15.5-6.9,15.5-15.5V59.8c0-8.5-6.9-15.5-15.5-15.5H27.8Z"/>
      <rect class="st0" x="21.7" y="108.1" width="24.4" height="24.5" rx="12" ry="12"/>
      <path class="st0" d="M74.3,28l-12.3-1c.3-3.8-1-7.5-3.6-10.4-2.5-2.8-6.1-4.4-9.7-4.4s-7.2,1.6-9.7,4.4c-2.6,2.9-3.9,6.5-3.6,10.4l-12.3,1c-.6-7.2,1.9-14.4,6.9-19.7C34.8,3,41.6,0,48.7,0s13.9,3,18.8,8.3c4.9,5.3,7.4,12.5,6.9,19.7h0Z"/>
    </g>
  </g>
</svg>