<?xml version="1.0" encoding="UTF-8"?>
<svg id="Layer_2" xmlns="http://www.w3.org/2000/svg" version="1.1" viewBox="0 0 481.9 156.6">
  <!-- Generator: Adobe Illustrator 29.4.0, SVG Export Plug-In . SVG Version: 2.1.0 Build 152)  -->
  <defs>
    <style>
      .st0 {
        fill: #fff;
      }
    </style>
  </defs>
  <g id="Layer_1-2">
    <g>
      <path class="st0" d="M136.4,86.7c0-20.2,15.3-34.8,34.8-34.8s34.8,14.6,34.8,34.8-15.3,34.9-34.8,34.9-34.8-14.7-34.8-34.9ZM171.2,106.9c10.9,0,19.2-8.3,19.2-20.2s-8.3-20.2-19.2-20.2-19.2,8.3-19.2,20.2,8.3,20.2,19.2,20.2Z"/>
      <path class="st0" d="M235.3,53.5h8v14.1h-6.5c-5.6,0-7.9,2.3-7.9,8v44.3h-15.6v-43.9c0-15.6,7.8-22.5,22-22.5Z"/>
      <path class="st0" d="M248.2,23h15.6v19.5h-15.6v-19.5h0ZM248.2,53.5h15.6v66.4h-15.6V53.5h0Z"/>
      <path class="st0" d="M271.7,86.7c0-20.5,14.9-34.5,33-34.5s16.7,3.3,21.5,9.3v-8h13.9v66.4h-13.8v-8c-4.9,6-12.9,9.3-21.6,9.3-18.1,0-33-14.2-33-34.4h0ZM306.7,106.8c10.5,0,19-7.4,19-20.1s-8.4-20.2-19-20.2-19.5,8.2-19.5,20.2,8.3,20.1,19.5,20.1Z"/>
      <path class="st0" d="M378.8,52c17.2,0,27.6,10.7,27.6,28.4v39.5h-15.6v-39c0-9.3-4.4-14.3-12-14.3s-12,5-12,14.3v39h-15.6v-39.5c0-17.7,10.3-28.4,27.6-28.4Z"/>
      <path class="st0" d="M413.5,86.7c0-20.5,14.9-34.5,33-34.5s16.7,3.3,21.5,9.3v-8h13.9v66.4h-13.8v-8c-4.9,6-12.9,9.3-21.6,9.3-18.1,0-33-14.2-33-34.4h0ZM448.5,106.8c10.5,0,19-7.4,19-20.1s-8.4-20.2-19-20.2-19.5,8.2-19.5,20.2,8.3,20.1,19.5,20.1Z"/>
    </g>
    <g>
      <path class="st0" d="M22.6,123.8h-12.9c-6.1,0-10.7-5.6-9.5-11.6L15.8,34.7C19.9,14.7,37.5.2,57.9.2l39.4-.2c6.9,0,10.9,7.7,6.9,13.3l-10.8,15.4c-1.8,2.6-4.9,4.2-8.1,4.2h-16.4c-11.5,0-21.4,8.1-23.8,19.4l-13.1,63.8c-.9,4.5-4.9,7.7-9.5,7.7Z"/>
      <path class="st0" d="M98.7,32.9h12.9c6.1,0,10.7,5.6,9.5,11.6l-15.3,75.8c-4.2,21-22.6,36.1-44,36.2H24c-6.9.2-10.9-7.6-7-13.2l10.8-15.4c1.9-2.6,4.9-4.2,8.1-4.2h16.4c11.5,0,21.4-8.1,23.8-19.4l13.1-63.8c.9-4.5,4.9-7.7,9.5-7.7Z"/>
    </g>
  </g>
</svg>