<?xml version="1.0" encoding="UTF-8"?>
<svg id="Layer_2" xmlns="http://www.w3.org/2000/svg" version="1.1" viewBox="0 0 451.4 134.6">
  <!-- Generator: Adobe Illustrator 29.4.0, SVG Export Plug-In . SVG Version: 2.1.0 Build 152)  -->
  <defs>
    <style>
      .st0 {
        fill: #fff;
      }
    </style>
  </defs>
  <g id="Layer_1-2">
    <g>
      <path class="st0" d="M175.7,58.9h7.5v7.4c3.5-5.2,10-8.3,17.2-8.3,13.1,0,23.9,10.3,23.9,25s-10.8,25-23.9,25-13.1-2.8-16.6-7.5c.2,3.6.3,7.2.3,10.7v14h-8.4V58.9h0ZM199.3,100.1c9.6,0,16.5-7.1,16.5-17.2s-6.9-17.2-16.5-17.2-16,6.2-16,17.2,7.2,17.2,16,17.2Z"/>
      <path class="st0" d="M228.1,83.2c0-14.4,10.2-25.2,24.2-25.2s23.2,8.3,22.9,26.1h-39.2c.5,9.5,7,16.5,17,16.5s12.8-3.5,16.3-9.3l5.8,4.3c-4.2,6.6-11.5,12.4-22.3,12.4s-24.7-10.7-24.7-24.8h0ZM266.9,77.8c-1.5-8.6-7.6-12.7-14.8-12.7s-14.1,5.4-15.8,12.7h30.6Z"/>
      <path class="st0" d="M278.6,83.1c0-14.6,10.8-25.3,24.8-25.3s24.7,10.7,24.7,25.3-10.8,25.1-24.7,25.1-24.8-10.6-24.8-25.1ZM303.4,100.2c9.3,0,16.2-7.2,16.2-17.2s-6.9-17.3-16.2-17.3-16.4,7.2-16.4,17.3,7,17.2,16.4,17.2Z"/>
      <path class="st0" d="M334.5,58.9h7.5v7.4c3.5-5.2,10-8.3,17.2-8.3,13.1,0,23.9,10.3,23.9,25s-10.8,25-23.9,25-13-2.8-16.6-7.5c.2,3.6.3,7.2.3,10.7v14h-8.4V58.9h0ZM358.2,100.1c9.6,0,16.5-7.1,16.5-17.2s-6.9-17.2-16.5-17.2-16,6.2-16,17.2,7.2,17.2,16,17.2Z"/>
      <path class="st0" d="M389.5,36.7h8.4v70.4h-8.4V36.7Z"/>
      <path class="st0" d="M404.3,83.2c0-14.4,10.2-25.2,24.2-25.2s23.2,8.3,22.9,26.1h-39.2c.5,9.5,7,16.5,17,16.5s12.8-3.5,16.3-9.3l5.8,4.3c-4.2,6.6-11.5,12.4-22.3,12.4s-24.7-10.7-24.7-24.8h0ZM443.1,77.8c-1.5-8.6-7.6-12.7-14.8-12.7s-14,5.4-15.8,12.7h30.6,0Z"/>
    </g>
    <g>
      <path class="st0" d="M169.5,25.8c0-8.1,5.8-14,13.6-14s13.6,5.9,13.6,14-5.8,13.9-13.6,13.9-13.6-5.9-13.6-13.9ZM183.1,36.5c5.9,0,10.3-4.5,10.3-10.8s-4.4-10.9-10.3-10.9-10.3,4.6-10.3,10.9,4.4,10.8,10.3,10.8Z"/>
      <path class="st0" d="M207.9,12.3h2.8v3.1h-2.5c-3.4,0-4.8,1.2-4.8,4.9v18.9h-3.2v-18.9c0-5.4,2.4-7.9,7.7-7.9h0Z"/>
      <path class="st0" d="M212.9,0h3.2v7.2h-3.2V0ZM212.9,12.3h3.2v26.8h-3.2V12.3Z"/>
      <path class="st0" d="M219.9,25.8c0-8.2,5.9-14,13.3-14s8.5,2.2,10.3,5.5v-5h3v26.8h-3v-5c-1.8,3.3-5.8,5.5-10.3,5.5-7.4,0-13.3-5.8-13.3-13.9h0ZM233.5,36.5c5.4,0,10-3.8,10-10.8s-4.6-10.9-10-10.9-10.3,4.6-10.3,10.9,4.4,10.8,10.3,10.8Z"/>
      <path class="st0" d="M261.8,11.8c6.4,0,10.1,4.1,10.1,11.1v16.2h-3.2v-16.1c0-5.3-2.4-8.1-6.9-8.1s-6.9,2.8-6.9,8.1v16.1h-3.2v-16.2c0-7,3.7-11.1,10.1-11.1Z"/>
      <path class="st0" d="M275.4,25.8c0-8.2,5.9-14,13.3-14s8.5,2.2,10.3,5.5v-5h3v26.8h-3v-5c-1.8,3.3-5.8,5.5-10.3,5.5-7.4,0-13.3-5.8-13.3-13.9h0ZM289,36.5c5.4,0,10-3.8,10-10.8s-4.6-10.9-10-10.9-10.3,4.6-10.3,10.9,4.4,10.8,10.3,10.8Z"/>
    </g>
    <path class="st0" d="M21.4,89.4c-11.8,0-21.4-9.6-21.4-21.4s9.6-21.4,21.4-21.4,21.4,9.6,21.4,21.4-9.6,21.4-21.4,21.4ZM21.4,58.6c-5.2,0-9.4,4.2-9.4,9.4s4.2,9.4,9.4,9.4,9.4-4.2,9.4-9.4-4.2-9.4-9.4-9.4Z"/>
    <path class="st0" d="M138.9,89.4c-11.8,0-21.4-9.6-21.4-21.4s9.6-21.4,21.4-21.4,21.4,9.6,21.4,21.4-9.6,21.4-21.4,21.4ZM138.9,58.6c-5.2,0-9.4,4.2-9.4,9.4s4.2,9.4,9.4,9.4,9.4-4.2,9.4-9.4-4.2-9.4-9.4-9.4Z"/>
    <path class="st0" d="M77.7,62.4c-14.5,0-26.3-11.8-26.3-26.3s11.8-26.3,26.3-26.3,26.3,11.8,26.3,26.3-11.8,26.3-26.3,26.3ZM77.7,21.9c-7.9,0-14.3,6.4-14.3,14.3s6.4,14.3,14.3,14.3,14.3-6.4,14.3-14.3-6.4-14.3-14.3-14.3Z"/>
    <path class="st0" d="M106.9,134.6c-.6,0-1.3,0-1.9-.1-7.2-.9-13.2-6.3-15.9-14.5l-.2-.7-6.5-29.5c-1-2.9-2.7-4.7-4.4-4.7h0c-1.4,0-3.3,1.5-4.4,4.9l-5.9,28.8v.3c-2.7,8.3-8.8,14-16,14.9-6.7.9-13.2-2.5-17.2-8.9l-13.1-20.7,11.9-7.5,13.1,20.8c.5.8,1.9,2.7,3.6,2.5,1.3-.2,3.1-1.8,4.2-4.9l5.9-28.8v-.3c3-9.2,9.8-15,17.9-15h0c8,0,14.8,5.6,17.8,14.6l.2.7,6.5,29.5c1.1,3.2,2.9,4.5,4.1,4.7,1.7.2,3-1.7,3.6-2.5l11.9-19.1,11.9,7.4-11.9,19.1c-3.6,5.8-9.2,9.2-15.2,9.2v-.2Z"/>
  </g>
</svg>