<?xml version="1.0" encoding="UTF-8"?>
<svg id="Layer_2" xmlns="http://www.w3.org/2000/svg" version="1.1" viewBox="0 0 452.7 138.2">
  <!-- Generator: Adobe Illustrator 29.4.0, SVG Export Plug-In . SVG Version: 2.1.0 Build 152)  -->
  <defs>
    <style>
      .st0 {
        fill: #fff;
      }
    </style>
  </defs>
  <g id="Layer_1-2">
    <g>
      <g>
        <path class="st0" d="M149.7,107.1v7.4h-7.6v-61.5h8.4v9.1c0,3.6,0,7.2-.3,10.7,3.6-4.7,9.9-7.4,16.6-7.4,13.1,0,23.9,10.3,23.9,25s-10.8,25-23.9,25-13.8-3.2-17.2-8.3h0ZM165.8,107.6c9.5,0,16.4-7.1,16.4-17.2s-6.9-17.2-16.4-17.2-16.1,6.2-16.1,17.2,7.2,17.2,16.1,17.2Z"/>
        <path class="st0" d="M194.2,90.5c0-14.6,10.8-25.3,24.8-25.3s24.7,10.7,24.7,25.3-10.8,25.1-24.7,25.1-24.8-10.6-24.8-25.1h0ZM219,107.7c9.3,0,16.2-7.2,16.2-17.2s-6.9-17.3-16.2-17.3-16.4,7.2-16.4,17.3,7,17.2,16.4,17.2h0Z"/>
        <path class="st0" d="M247.2,90.5c0-14.6,10.8-25.3,24.8-25.3s24.7,10.7,24.7,25.3-10.8,25.1-24.7,25.1-24.8-10.6-24.8-25.1h0ZM272,107.7c9.3,0,16.2-7.2,16.2-17.2s-6.9-17.3-16.2-17.3-16.4,7.2-16.4,17.3,7,17.2,16.4,17.2Z"/>
        <path class="st0" d="M311.6,91.9v22.6h-8.4v-61.5h8.4v33.4l17.3-20.1h10l-19.3,22.5,20.6,25.7h-10.4l-18.2-22.6h0Z"/>
        <path class="st0" d="M343.2,44.2h8.4v13.5h-8.4s0-13.5,0-13.5ZM343.2,66.3h8.4v48.2h-8.4v-48.2Z"/>
        <path class="st0" d="M379.2,65.2c11.9,0,19,7.6,19,20.3v28.9h-8.4v-28.7c0-8.2-3.7-12.7-10.6-12.7s-10.7,4.5-10.7,12.7v28.7h-8.4v-28.9c0-12.8,7-20.3,19.1-20.3h0Z"/>
        <path class="st0" d="M416.7,124.9h9.9c11.9,0,17.7-4.7,17.9-14.8v-3.7c-3.4,4.8-9.3,7.6-16.4,7.6-13.4,0-24-9.8-24-24.2s10.6-24.5,23.8-24.5,13.8,3.1,17.2,8.2v-7.3h7.7v43.2c0,14.8-9,23.1-26.4,23.1h-9.6s0-7.7,0-7.7ZM429,106.5c8.8,0,16-5.7,16-16.4s-7.2-16.9-16.1-16.9-16.4,6.9-16.4,16.7,6.8,16.6,16.5,16.6Z"/>
      </g>
      <g>
        <path class="st0" d="M135.9,33.2c0-8.1,5.8-14,13.6-14s13.6,5.9,13.6,14-5.8,13.9-13.6,13.9-13.6-5.9-13.6-13.9ZM149.5,44c5.9,0,10.3-4.5,10.3-10.8s-4.4-10.9-10.3-10.9-10.3,4.6-10.3,10.9,4.4,10.8,10.3,10.8Z"/>
        <path class="st0" d="M174.3,19.7h2.8v3h-2.5c-3.4,0-4.8,1.2-4.8,4.9v18.9h-3.2v-18.9c0-5.4,2.4-7.9,7.7-7.9h0Z"/>
        <path class="st0" d="M179.4,7.4h3.2v7.2h-3.2s0-7.2,0-7.2ZM179.4,19.7h3.2v26.8h-3.2s0-26.8,0-26.8Z"/>
        <path class="st0" d="M186.3,33.2c0-8.2,5.9-14,13.3-14s8.5,2.2,10.3,5.5v-5h3v26.8h-3v-5c-1.8,3.3-5.8,5.5-10.3,5.5-7.4,0-13.3-5.8-13.3-13.9ZM199.9,44c5.4,0,10-3.8,10-10.8s-4.6-10.9-10-10.9-10.3,4.6-10.3,10.9,4.4,10.8,10.3,10.8Z"/>
        <path class="st0" d="M228.2,19.2c6.4,0,10.1,4.1,10.1,11.1v16.2h-3.2v-16.1c0-5.3-2.4-8.1-6.9-8.1s-6.9,2.8-6.9,8.1v16.1h-3.2v-16.2c0-7,3.7-11.1,10.1-11.1Z"/>
        <path class="st0" d="M241.8,33.2c0-8.2,5.9-14,13.3-14s8.5,2.2,10.3,5.5v-5h3v26.8h-3v-5c-1.8,3.3-5.8,5.5-10.3,5.5-7.4,0-13.3-5.8-13.3-13.9h0ZM255.4,44c5.4,0,10-3.8,10-10.8s-4.6-10.9-10-10.9-10.3,4.6-10.3,10.9,4.4,10.8,10.3,10.8Z"/>
      </g>
      <rect class="st0" x="49.3" y="10.7" width="19.2" height="13"/>
      <path class="st0" d="M92.1,10.7h-6.2v13h6.2c7.1,0,12.9,5.8,12.9,12.9v75.7c0,7.1-5.8,12.9-12.9,12.9H25.9c-7.1,0-12.9-5.8-12.9-12.9V36.6c0-7.1,5.8-12.9,12.9-12.9h6v-13h-6C11.6,10.7,0,22.3,0,36.6v75.7c0,14.3,11.6,25.9,25.9,25.9h66.1c14.3,0,25.9-11.6,25.9-25.9V36.6c0-14.3-11.6-25.9-25.9-25.9h.1Z"/>
      <path class="st0" d="M29.9,83.5l17.8,19c1,1.1,2.4,1.7,3.9,1.7h0c1.5,0,2.9-.6,3.9-1.7l32.7-34.8c2-2.1,1.9-5.5-.2-7.5s-5.5-1.9-7.5.2l-28.8,30.7-13.9-14.8c-2-2.1-5.4-2.3-7.5-.2-2.1,2-2.3,5.4-.2,7.5h-.2Z"/>
      <path class="st0" d="M40.6,31.3c3,0,5.4-2.4,5.4-5.4V8.7c0-3-2.4-5.4-5.4-5.4s-5.4,2.4-5.4,5.4v17.2c0,3,2.4,5.4,5.4,5.4Z"/>
      <path class="st0" d="M77.2,31.3c3,0,5.4-2.4,5.4-5.4V8.7c0-3-2.4-5.4-5.4-5.4s-5.4,2.4-5.4,5.4v17.2c0,3,2.4,5.4,5.4,5.4Z"/>
    </g>
  </g>
</svg>