<?xml version="1.0" encoding="UTF-8"?>
<svg id="Layer_2" xmlns="http://www.w3.org/2000/svg" version="1.1" viewBox="0 0 436.1 129">
  <!-- Generator: Adobe Illustrator 29.4.0, SVG Export Plug-In . SVG Version: 2.1.0 Build 152)  -->
  <defs>
    <style>
      .st0 {
        fill: #fff;
      }
    </style>
  </defs>
  <g id="Layer_1-2">
    <g>
      <g>
        <path class="st0" d="M147,33.4c0-8.1,5.8-14,13.6-14s13.6,5.9,13.6,14-5.8,13.9-13.6,13.9-13.6-5.9-13.6-13.9ZM160.5,44.2c5.9,0,10.3-4.5,10.3-10.8s-4.4-10.9-10.3-10.9-10.3,4.6-10.3,10.9,4.4,10.8,10.3,10.8Z"/>
        <path class="st0" d="M185.4,19.9h2.8v3h-2.5c-3.4,0-4.8,1.2-4.8,4.9v18.9h-3.2v-18.9c0-5.4,2.4-7.9,7.7-7.9h0Z"/>
        <path class="st0" d="M190.4,7.7h3.2v7.2h-3.2v-7.2ZM190.4,19.9h3.2v26.8h-3.2v-26.8Z"/>
        <path class="st0" d="M197.4,33.4c0-8.2,5.9-14,13.3-14s8.5,2.2,10.3,5.5v-5h3v26.8h-3v-5c-1.8,3.3-5.8,5.5-10.3,5.5-7.4,0-13.3-5.8-13.3-13.9ZM211,44.2c5.4,0,10-3.8,10-10.8s-4.6-10.9-10-10.9-10.3,4.6-10.3,10.9,4.4,10.8,10.3,10.8Z"/>
        <path class="st0" d="M239.3,19.4c6.4,0,10.1,4.1,10.1,11.1v16.2h-3.2v-16.1c0-5.3-2.4-8.1-6.9-8.1s-6.9,2.8-6.9,8.1v16.1h-3.2v-16.2c0-7,3.7-11.1,10.1-11.1Z"/>
        <path class="st0" d="M252.9,33.4c0-8.2,5.9-14,13.3-14s8.5,2.2,10.3,5.5v-5h3v26.8h-3v-5c-1.8,3.3-5.8,5.5-10.3,5.5-7.4,0-13.3-5.8-13.3-13.9h0ZM266.5,44.2c5.4,0,10-3.8,10-10.8s-4.6-10.9-10-10.9-10.3,4.6-10.3,10.9,4.4,10.8,10.3,10.8Z"/>
      </g>
      <g>
        <path class="st0" d="M149.6,90.8c0-14.7,10.3-24.8,24.8-24.8s4.9.2,7.8.6v7.8c-2.8-.5-5.2-.6-6.9-.6-10.5,0-17.3,7.1-17.3,17s6.8,16.8,17.3,16.8,4-.2,6.9-.6v7.8c-2.8.5-5.5.6-7.8.6-14.5,0-24.8-10.2-24.8-24.7h0Z"/>
        <path class="st0" d="M183.1,90.8c0-14.7,10.8-25.4,24.9-25.4s24.8,10.7,24.8,25.4-10.8,25.2-24.8,25.2-24.9-10.6-24.9-25.2ZM208,108c9.3,0,16.3-7.2,16.3-17.2s-7-17.4-16.3-17.4-16.5,7.2-16.5,17.4,7.1,17.2,16.5,17.2h0Z"/>
        <path class="st0" d="M257.7,65.4c11.9,0,19,7.6,19,20.4v29h-8.4v-28.7c0-8.2-3.8-12.7-10.6-12.7s-10.7,4.5-10.7,12.7v28.7h-8.4v-29c0-12.8,7.1-20.4,19.1-20.4Z"/>
        <path class="st0" d="M304.2,65.4c11.9,0,19,7.6,19,20.4v29h-8.4v-28.7c0-8.2-3.8-12.7-10.6-12.7s-10.7,4.5-10.7,12.7v28.7h-8.4v-29c0-12.8,7-20.4,19.1-20.4Z"/>
        <path class="st0" d="M329,90.9c0-14.5,10.2-25.3,24.3-25.3s23.2,8.3,23,26.2h-39.4c.5,9.5,7,16.6,17,16.6s12.8-3.5,16.4-9.3l5.9,4.3c-4.2,6.6-11.5,12.4-22.3,12.4s-24.8-10.7-24.8-24.9h0ZM368,85.5c-1.6-8.6-7.6-12.7-14.8-12.7s-14.1,5.4-15.8,12.7h30.7,0Z"/>
        <path class="st0" d="M379.9,90.8c0-14.7,10.3-24.8,24.8-24.8s4.9.2,7.8.6v7.8c-2.8-.5-5.2-.6-6.9-.6-10.5,0-17.3,7.1-17.3,17s6.8,16.8,17.3,16.8,4-.2,6.9-.6v7.8c-2.8.5-5.5.6-7.8.6-14.5,0-24.8-10.2-24.8-24.7h0Z"/>
        <path class="st0" d="M421.4,74.2h-5.9v-7.7h5.9v-13.4l8.4-3.1v16.5h6.2v7.7h-6.2v40.6h-8.4v-40.6h0Z"/>
      </g>
      <g>
        <circle class="st0" cx="81.6" cy="85.4" r="15.4"/>
        <path class="st0" d="M80.9,129c-24.1-.4-43.2-20.5-43.2-44.5v-10.5c0-2.1,1.7-3.9,3.9-3.9h4.6c2.1,0,3.9,1.7,3.9,3.9v10.7c0,17.7,14.4,32.4,32.1,32.1,17.1-.3,31-14.3,31-31.5v-35c0-2.1,1.7-3.9,3.9-3.9h4.6c2.1,0,3.9,1.7,3.9,3.9v35c0,24.4-20.1,44.2-44.6,43.9h0Z"/>
        <circle class="st0" cx="43.9" cy="43.6" r="15.4"/>
        <path class="st0" d="M8.5,82.8H3.9c-2.1,0-3.9-1.7-3.9-3.9v-34.3C0,20.5,19.1.4,43.2,0c24.5-.4,44.6,19.5,44.6,43.9v11.2c0,2.1-1.7,3.9-3.9,3.9h-4.6c-2.1,0-3.9-1.7-3.9-3.9v-10.6c0-17.6-14.5-32.4-32.1-32.1s-31,14.3-31,31.5v35c0,2.1-1.7,3.9-3.9,3.9h0Z"/>
      </g>
    </g>
  </g>
</svg>